<?xml version="1.0" encoding="UTF-8" standalone="no"?>
<!-- Created with Inkscape (http://www.inkscape.org/) -->

<svg
   width="53.109577mm"
   height="54.019718mm"
   viewBox="0 0 53.109577 54.019718"
   version="1.1"
   id="svg1"
   xmlns="http://www.w3.org/2000/svg"
   xmlns:svg="http://www.w3.org/2000/svg">
  <defs
     id="defs1" />
  <g
     id="layer1"
     transform="translate(-61.48391,-78.337133)">
    <path
       id="path18"
       d="m 84.875147,121.87509 c 0,0 0.03753,0.26747 0.109491,0.76998 0.08554,0.49648 0.258081,1.17499 0.59648,2.01931 0.341823,0.83319 0.908393,1.78005 1.737325,2.67817 0.834046,0.89131 1.971475,1.70058 3.331927,2.21674 0.687052,0.23763 1.417716,0.43326 2.189385,0.48881 0.381986,0.0589 0.777631,0.0264 1.172453,0.0351 0.29567,-0.0436 0.932323,-0.0598 1.222012,-0.1606 1.506598,-0.29141 3.077262,-1.13316 4.222362,-2.39875 1.131438,-1.28783 1.960378,-2.94396 2.202208,-4.74879 0.0497,-0.2214 0.0463,-0.45205 0.071,-0.67766 l 0.0256,-0.29994 0.007,-0.39994 c 0.003,-0.27687 -0.0121,-0.4196 -0.0242,-0.65203 -0.017,-0.22213 -0.0419,-0.44181 -0.0761,-0.65885 -0.12742,-0.86995 -0.41447,-1.68862 -0.84432,-2.42012 -0.863962,-1.45873 -2.310722,-2.56966 -4.014713,-3.19264 -0.846015,-0.32215 -1.745003,-0.53665 -2.658526,-0.65288 -0.912683,-0.1325 -1.815086,-0.10682 -2.8662,-0.20348 -2.020159,-0.16932 -3.973685,-0.27772 -5.825511,-0.38198 -1.851832,-0.10344 -3.602818,-0.20178 -5.218806,-0.29226 -3.231927,-0.17344 -5.925506,-0.40848 -7.811516,-0.53069 -1.885137,-0.15285 -2.962754,-0.24006 -2.962754,-0.24006 -0.09229,-0.007 -0.160603,-0.0879 -0.152851,-0.17949 0.0049,-0.0829 0.07267,-0.14704 0.152851,-0.15383 0,0 1.077617,-0.0872 2.962754,-0.23932 1.88601,-0.1221 4.579589,-0.35721 7.811516,-0.53155 1.615988,-0.0906 3.366974,-0.18797 5.218806,-0.29225 1.851826,-0.10417 3.805352,-0.21269 5.825511,-0.38199 0.966522,-0.0933 2.125291,-0.11119 3.278096,0.0281 1.14939,0.13153 2.315863,0.38628 3.459239,0.80415 2.267144,0.82465 4.496704,2.43037 5.770834,4.74536 0.63666,1.14168 1.03402,2.4073 1.18614,3.66519 0.0429,0.31535 0.0622,0.62897 0.0734,0.94175 0.01,0.30166 0.007,0.69475 -0.01,0.95197 l -0.0257,0.39992 c -0.0194,0.23159 -0.0385,0.32475 -0.0588,0.49395 -0.0453,0.30166 -0.0649,0.60501 -0.14099,0.90156 -0.45547,2.38676 -1.64418,4.59495 -3.32593,6.20151 -0.84006,0.805 -1.808252,1.44507 -2.819203,1.9168 -1.024618,0.48111 -2.042398,0.76224 -3.161003,0.86225 -0.619569,0.0821 -0.904995,0.0359 -1.504023,0.0479 -0.503343,-0.0514 -0.99814,-0.0683 -1.474113,-0.18192 -0.960542,-0.15818 -1.841581,-0.50591 -2.639728,-0.89472 -1.58435,-0.81951 -2.805521,-1.93301 -3.611373,-3.09007 -0.813548,-1.15366 -1.279275,-2.29535 -1.501457,-3.25931 -0.229878,-0.95369 -0.270042,-1.75098 -0.264928,-2.25944 0.01941,-0.50676 0.03077,-0.77681 0.03077,-0.77681 0.0052,-0.0923 0.08217,-0.16399 0.174409,-0.1606 0.08216,0.003 0.147765,0.0649 0.158911,0.14365"
       style="fill:#ffffff;fill-opacity:1;fill-rule:nonzero;stroke:none;stroke-width:0.0854556" />
    <path
       id="path19"
       d="m 91.456941,95.375225 c 0,0 -0.01699,-0.213653 -0.01456,-0.626381 0.0097,-0.426431 0.09157,-1.045974 0.392256,-1.789449 0.298245,-0.736619 0.847714,-1.598884 1.773198,-2.292774 0.904128,-0.68706 2.254336,-1.182724 3.663497,-1.103247 1.527086,0.06076 3.079828,0.827216 4.152318,2.177424 0.53407,0.666562 0.93316,1.465558 1.17586,2.326099 0.117,0.448654 0.19573,0.839186 0.23254,1.370723 0.005,0.204206 0.0194,0.38625 0.017,0.611873 -0.017,0.249526 -0.0281,0.511022 -0.0676,0.753719 -0.14437,0.950246 -0.55717,1.906506 -1.20322,2.68159 -0.64692,0.775928 -1.49889,1.357908 -2.405581,1.722788 -0.911834,0.36406 -1.871501,0.53837 -2.820897,0.57853 -0.957102,0.0315 -1.752709,-0.0194 -2.638887,-0.0443 -6.916788,-0.22649 -13.834449,-0.32302 -19.023337,-0.50506 -5.188016,-0.16667 -8.646411,-0.27688 -8.646411,-0.27688 -0.05135,-0.002 -0.09157,-0.0443 -0.08963,-0.0957 0.0019,-0.0487 0.04094,-0.0879 0.08963,-0.0896 0,0 3.458395,-0.11021 8.646411,-0.27602 5.188888,-0.18289 12.106549,-0.27858 19.023337,-0.50504 0.84858,-0.02644 1.697161,-0.05304 2.5423,-0.07852 0.769979,-0.04871 1.516868,-0.207595 2.181714,-0.489675 1.354463,-0.534935 2.279091,-1.627937 2.509821,-2.926012 l 0.0622,-0.449494 c 0.0121,-0.175137 0.005,-0.393947 0.01,-0.587059 0,-0.09399 -0.0247,-0.317069 -0.0341,-0.469169 -0.0301,-0.164961 -0.0521,-0.331569 -0.0872,-0.494788 -0.14704,-0.651161 -0.4213,-1.25363 -0.78022,-1.773207 -0.697303,-1.059659 -1.856947,-1.689456 -2.913165,-1.852701 -1.188714,-0.169321 -2.228708,0.107802 -3.072998,0.579406 -0.825526,0.491382 -1.43225,1.136554 -1.785193,1.760387 -0.364036,0.618703 -0.520417,1.184423 -0.606733,1.559571 -0.07436,0.393106 -0.09665,0.612713 -0.09665,0.612713 -0.0052,0.0514 -0.05036,0.08794 -0.100773,0.08286 -0.04533,-0.0052 -0.07948,-0.04091 -0.08286,-0.08381 l -6.25e-4,-0.0097"
       style="fill:#ffffff;fill-opacity:1;fill-rule:nonzero;stroke:none;stroke-width:0.0854556" />
    <path
       id="path20"
       d="m 86.286882,92.798741 c 0,0 -0.0052,-0.09666 -0.01941,-0.283709 -0.01456,-0.186283 -0.03146,-0.464879 -0.02981,-0.845166 0.0026,-0.747739 0.04022,-1.858655 0.409331,-3.232793 0.350368,-1.372421 1.028033,-3.014884 2.254335,-4.633417 1.206628,-1.622797 3.003765,-3.194337 5.346964,-4.248017 1.164749,-0.537526 2.473077,-0.908392 3.857459,-1.092126 0.346953,-0.04533 0.698197,-0.08113 1.053688,-0.09907 0.105123,-0.0052 0.140251,-0.01213 0.304225,-0.01456 l 0.240053,-0.0052 c 0.16666,-0.0017 0.305923,-0.01213 0.497363,-0.0052 0.78705,0.01213 1.49548,0.08554 2.25005,0.210993 2.99009,0.505882 5.97763,2.174849 8.16871,4.691522 2.20904,2.508126 3.57293,5.83663 3.90193,9.304423 0.0368,0.552911 0.0649,0.736645 0.0683,1.278436 0.0121,0.483668 -0.01,0.933163 -0.0341,1.376677 -0.071,0.898147 -0.22214,1.802267 -0.45976,2.694426 -0.48196,1.783477 -1.35106,3.49857 -2.5201,4.95816 -2.39105,2.91489 -5.79646,4.65222 -9.13011,5.37602 -1.67577,0.37515 -3.355848,0.54777 -4.997444,0.53667 -1.544187,-0.0341 -2.979852,-0.18191 -4.441155,-0.27089 -2.898649,-0.18216 -5.700756,-0.31105 -8.358433,-0.42474 -2.657682,-0.10779 -5.170068,-0.26832 -7.489343,-0.38965 -2.319275,-0.1187 -4.445414,-0.27688 -6.329728,-0.39055 -1.884289,-0.12038 -3.526754,-0.22551 -4.879527,-0.31277 -2.706394,-0.19742 -4.252278,-0.31021 -4.252278,-0.31021 -0.127417,-0.01 -0.222131,-0.11967 -0.213653,-0.24696 0.0097,-0.11531 0.101739,-0.20518 0.213653,-0.21268 0,0 1.545884,-0.11288 4.252278,-0.31021 1.352773,-0.0862 2.995238,-0.19137 4.879527,-0.31191 1.884314,-0.11457 4.010453,-0.27177 6.329728,-0.39053 2.319275,-0.12136 4.831661,-0.28201 7.489343,-0.38968 2.657677,-0.11361 5.459784,-0.2427 8.358433,-0.42472 1.43824,-0.0923 2.949942,-0.22722 4.389022,-0.28029 1.342502,-0.0375 2.680737,-0.19306 3.972837,-0.50078 2.57563,-0.61785 4.96072,-1.87233 6.52372,-3.765194 0.78532,-0.937436 1.37241,-2.020159 1.7262,-3.202883 0.17344,-0.592198 0.28884,-1.206628 0.36146,-1.834725 0.0315,-0.320459 0.0598,-0.634078 0.0659,-0.915248 0.0243,-0.22213 -0.007,-0.800712 -0.007,-1.006661 -0.10513,-2.606402 -1.03148,-5.11283 -2.52438,-7.075751 -1.48094,-1.985126 -3.57631,-3.335334 -5.78622,-3.933513 -0.54521,-0.147765 -1.1374,-0.260646 -1.6399,-0.319608 -0.130803,-0.01941 -0.312752,-0.02566 -0.466567,-0.03848 l -0.239334,-0.01699 c 0.0052,-0.0026 -0.118697,-0.0052 -0.172719,-0.0052 -0.280286,-0.01456 -0.558041,-0.01213 -0.834912,-6.59e-4 -1.103221,0.04429 -2.170568,0.236664 -3.16187,0.55291 -1.99538,0.623834 -3.637851,1.769783 -4.872673,3.002915 -1.237423,1.244226 -2.044965,2.603829 -2.564541,3.784828 -0.519577,1.186139 -0.749463,2.207343 -0.880198,2.896969 -0.06422,0.341813 -0.09835,0.618693 -0.116998,0.807541 -0.02184,0.186283 -0.03345,0.28286 -0.03345,0.28286 -0.01456,0.126445 -0.129114,0.218013 -0.255507,0.202508 -0.112889,-0.01213 -0.197428,-0.105124 -0.204206,-0.214373"
       style="fill:#ffffff;fill-opacity:1;fill-rule:nonzero;stroke:none;stroke-width:0.0854556" />
  </g>
</svg>
